Patient4_TMGait_0pt7_02_right_06_GRF.mot
version=1
nRows=65
nColumns=19
inDegrees=no
endheader
time	F1x	F1y	F1z	M1x	M1y	M1z	F2x	F2y	F2z	M2x	M2y	M2z	EC1x	EC1y	EC1z	EC2x	EC2y	EC2z
5.92	-20.8296	779.5279	76.8519	-264.2906	-85.9859	844.0967	-4.4258	5.9387	8.3885	0.27372	-3.6953	2.8994	-0.0592	0.0182	-0.0073	-0.0462	0.0165	0.9585
5.9313	-15.8759	773.2682	76.4422	-261.2218	-84.2477	836.9198	-2.9474	5.2445	5.6771	0.62941	-2.4632	3.5092	-0.0592	0.0182	-0.0073	-0.0462	0.0165	0.9585
5.9426	-11.1063	765.8452	76.0406	-257.8317	-82.4134	827.4649	-1.7037	4.6516	3.3653	0.94123	-1.4276	3.9922	-0.0592	0.0182	-0.0073	-0.0462	0.0165	0.9585
5.9539	-6.7375	757.6665	75.7026	-254.3144	-80.5786	816.1788	-0.7689	4.216	1.5863	1.1955	-0.63648	4.3566	-0.0592	0.0182	-0.0073	-0.0462	0.0165	0.9585
5.9651	-2.8104	749.1756	75.3664	-250.8475	-78.7101	803.6748	-0.13131	3.9334	0.33709	1.3909	-0.079932	4.6142	-0.0592	0.0182	-0.0073	-0.0462	0.0165	0.9585
5.9764	0.68542	740.7909	75.0147	-247.5756	-76.8125	790.5853	0.24521	3.7615	-0.46318	1.5271	0.29021	4.7626	-0.0592	0.0182	-0.0073	-0.0462	0.0165	0.9585
5.9877	3.8378	732.8511	74.5664	-244.6062	-74.8175	777.4593	0.42329	3.6471	-0.91997	1.6028	0.52555	4.7854	-0.0592	0.0182	-0.0073	-0.0462	0.0165	0.9585
5.999	6.7528	725.6533	74.0092	-242.0197	-72.7079	764.7719	0.45327	3.5038	-1.133	1.6059	0.6693	4.6466	-0.0592	0.0182	-0.0073	-0.0462	0.0165	0.9585
6.0103	9.5588	719.4692	73.3121	-239.8835	-70.4397	752.9092	0.38979	3.2321	-1.2037	1.5146	0.76763	4.2784	-0.0592	0.0182	-0.0073	-0.0462	0.0165	0.9585
6.0216	12.401	714.5424	72.4746	-238.2488	-67.983	742.1892	0.26802	2.7076	-1.1924	1.2966	0.8397	3.5751	-0.0592	0.0182	-0.0073	-0.0462	0.0165	0.9585
6.0329	15.4059	711.0878	71.5466	-237.1471	-65.3593	732.8704	0.13358	1.775	-1.1523	0.90604	0.89826	2.3733	-0.0592	0.0182	-0.0073	-0.0462	0.0165	0.9585
6.0441	18.6716	709.2371	70.5841	-236.5772	-62.605	725.1252	0.014213	0.30644	-1.1038	0.30083	0.93687	0.53389	-0.0592	0.0182	-0.0073	-0.0462	0.0165	0.9585
6.0554	22.2525	709.0692	69.7268	-236.5136	-59.8481	719.0781	-0.049302	-1.8053	-1.044	-0.55391	0.92898	-2.0688	-0.0592	0.0182	-0.0073	-0.0462	0.0165	0.9585
6.0667	26.1285	710.5324	69.1004	-236.8935	-57.2281	714.7325	-0.01835	-4.5497	-0.95442	-1.6517	0.83497	-5.4046	-0.0592	0.0182	-0.0073	-0.0462	0.0165	0.9585
6.078	30.2252	713.4497	68.8524	-237.615	-54.9191	711.9892	0.15776	-7.7663	-0.7956	-2.9224	0.59093	-9.2908	-0.0592	0.0182	-0.0073	-0.0462	0.0165	0.9585
6.0893	34.4362	717.4898	69.0558	-238.5385	-53.0362	710.5899	0.51769	-11.012	-0.52596	-4.1888	0.13117	-13.2007	-0.0592	0.0182	-0.0073	-0.0462	0.0165	0.9585
6.1006	38.6086	722.1123	69.7188	-239.4778	-51.6432	710.0606	1.1132	-13.4552	-0.076103	-5.1226	-0.6395	-16.145	-0.0592	0.0182	-0.0073	-0.0462	0.0165	0.9585
6.1119	42.6305	726.5736	70.7527	-240.2026	-50.7071	709.7356	1.9499	-13.7538	0.61453	-5.1975	-1.7918	-16.505	-0.0592	0.0182	-0.0073	-0.0462	0.0165	0.9585
6.1231	46.389	729.9106	71.9688	-240.4314	-50.095	708.7342	3.0158	-9.9741	1.5939	-3.6576	-3.3671	-11.9592	-0.0592	0.0182	-0.0073	-0.0462	0.0165	0.9585
6.1344	49.8187	731.0522	73.1371	-239.8565	-49.6269	706.0593	4.2122	0.42125	2.8752	0.48094	-5.3241	0.55503	-0.0592	0.0182	-0.0073	-0.0462	0.0165	0.9585
6.1457	52.8496	728.858	73.9673	-238.1595	-49.0655	700.6475	5.3358	20.4152	4.3926	8.3677	-7.479	24.6358	-0.0592	0.0182	-0.0073	-0.0462	0.0165	0.9585
6.157	55.4199	722.1936	74.1737	-235.0339	-48.1746	691.4208	6.0227	53.0557	5.9658	21.1619	-9.4402	63.9688	-0.0592	0.0182	-0.0073	-0.0462	0.0165	0.9585
6.1683	57.4629	709.9641	73.4767	-230.1892	-46.7193	677.3471	5.7177	100.6607	7.2336	39.7262	-10.5253	121.3633	-0.0592	0.0182	-0.0073	-0.0462	0.0165	0.9585
6.1796	58.9374	691.0956	71.6027	-223.3419	-44.4573	657.3742	3.5849	163.6892	7.5915	64.1797	-9.6698	197.3906	-0.0592	0.0182	-0.0073	-0.0462	0.0165	0.9585
6.1909	59.7331	664.5	68.3616	-214.1903	-41.238	630.4514	-1.5753	239.2506	6.3073	93.3236	-5.5441	288.5704	-0.0592	0.0182	-0.0073	-0.0462	0.0165	0.9585
6.2021	59.6944	629.1415	63.641	-202.4329	-37.0005	595.5802	-10.4272	319.8543	2.5789	124.1754	2.9919	385.849	-0.0592	0.0182	-0.0073	-0.0462	0.0165	0.9585
6.2134	58.5571	584.3371	57.5486	-187.8523	-31.9273	552.1175	-21.5612	395.097	-4.431	152.6824	16.158	476.5073	-0.0592	0.0182	-0.0073	-0.0462	0.0165	0.9585
6.2247	56.0663	530.2885	50.3972	-170.4778	-26.3837	500.2481	-32.7568	458.3853	-14.2627	176.2791	32.4451	552.3089	-0.0592	0.0182	-0.0073	-0.0462	0.0165	0.9585
6.236	52.0634	468.4263	42.7189	-150.6945	-20.8948	441.3396	-42.8132	509.3544	-25.8004	194.8368	50.0749	612.5832	-0.0592	0.0182	-0.0073	-0.0462	0.0165	0.9585
6.2473	46.6063	401.099	35.1772	-129.1783	-16.0208	377.58	-51.0615	551.5079	-37.9603	209.747	67.5013	661.4517	-0.0592	0.0182	-0.0073	-0.0462	0.0165	0.9585
6.2586	39.8764	331.4111	28.1994	-106.8667	-12.0683	311.8651	-57.3055	588.7617	-49.1984	222.6232	82.9314	703.6517	-0.0592	0.0182	-0.0073	-0.0462	0.0165	0.9585
6.2699	32.2046	262.8464	22.0526	-84.8524	-9.1597	247.4056	-61.5975	623.676	-58.8396	234.5283	95.5845	742.3563	-0.0592	0.0182	-0.0073	-0.0462	0.0165	0.9585
6.2811	24.1106	198.9528	16.7966	-64.2746	-7.1733	187.4658	-64.0339	657.0236	-66.2209	245.8323	104.8115	778.5447	-0.0592	0.0182	-0.0073	-0.0462	0.0165	0.9585
6.2924	16.364	142.6973	12.4454	-46.1089	-5.8683	134.7348	-64.741	688.2833	-71.6254	256.3567	110.9827	811.719	-0.0592	0.0182	-0.0073	-0.0462	0.0165	0.9585
6.3037	9.6672	95.8936	8.9208	-30.9708	-4.9384	90.8606	-63.8454	716.4298	-75.4553	265.6959	114.6477	840.7685	-0.0592	0.0182	-0.0073	-0.0462	0.0165	0.9585
6.315	4.4681	59.1201	6.0878	-19.0773	-4.1153	56.3315	-61.5564	740.0044	-78.3204	273.2793	116.5977	864.1454	-0.0592	0.0182	-0.0073	-0.0462	0.0165	0.9585
6.3263	0.85223	31.993	3.8562	-10.3163	-3.2941	30.8173	-58.219	757.7699	-80.6248	278.6354	117.4362	880.575	-0.0592	0.0182	-0.0073	-0.0462	0.0165	0.9585
6.3376	-1.286	13.4286	2.1659	-4.339	-2.4689	13.3052	-54.1999	769.1118	-82.3878	281.5587	117.3682	889.4539	-0.0592	0.0182	-0.0073	-0.0462	0.0165	0.9585
6.3489	-2.3065	2.0209	0.96572	-0.6788	-1.7204	2.5147	-49.8767	774.1968	-83.5949	282.1577	116.523	891.0974	-0.0592	0.0182	-0.0073	-0.0462	0.0165	0.9585
6.3601	-2.5756	-3.9725	0.22443	1.2326	-1.1474	-3.1847	-45.4319	773.8514	-83.952	280.7994	114.698	886.4931	-0.0592	0.0182	-0.0073	-0.0462	0.0165	0.9585
6.3714	-2.4318	-6.2133	-0.1775	1.9349	-0.7469	-5.3329	-41.1204	769.1402	-83.5034	277.9278	112.0226	876.9336	-0.0592	0.0182	-0.0073	-0.0462	0.0165	0.9585
6.3827	-2.0627	-6.1462	-0.33182	1.8935	-0.50043	-5.2957	-37.0315	761.3201	-82.1959	274.0512	108.4975	863.8579	-0.0592	0.0182	-0.0073	-0.0462	0.0165	0.9585
6.394	-1.6493	-4.8465	-0.33286	1.4574	-0.37422	-4.0811	-33.287	751.7301	-80.2646	269.6745	104.4215	848.8281	-0.0592	0.0182	-0.0073	-0.0462	0.0165	0.9585
6.4053	-1.2455	-3.0697	-0.25594	0.87141	-0.32167	-2.4111	-29.9532	741.574	-77.9299	265.2512	100.072	833.1857	-0.0592	0.0182	-0.0073	-0.0462	0.0165	0.9585
6.4166	-0.91833	-1.2943	-0.14488	0.29287	-0.31874	-0.71362	-27.0728	732.0392	-75.4957	261.1963	95.8029	818.2702	-0.0592	0.0182	-0.0073	-0.0462	0.0165	0.9585
6.4279	-0.65938	0.23842	-0.043568	-0.20084	-0.32178	0.75546	-24.6343	724.0348	-73.2168	257.8355	91.8887	805.0485	-0.0592	0.0182	-0.0073	-0.0462	0.0165	0.9585
6.4391	-0.47977	1.4324	0.038579	-0.57975	-0.32141	1.9255	-22.607	718.3619	-71.2121	255.444	88.4571	794.3684	-0.0592	0.0182	-0.0073	-0.0462	0.0165	0.9585
6.4504	-0.34098	2.2914	0.084516	-0.84859	-0.29729	2.7629	-20.9099	715.4977	-69.6018	254.1887	85.6109	786.6862	-0.0592	0.0182	-0.0073	-0.0462	0.0165	0.9585
6.4617	-0.25399	2.8835	0.10731	-1.0257	-0.26811	3.3336	-19.4899	715.6507	-68.349	254.1417	83.2949	782.1798	-0.0592	0.0182	-0.0073	-0.0462	0.0165	0.9585
6.473	-0.18373	3.2627	0.10719	-1.1324	-0.22737	3.6841	-18.1975	718.688	-67.4771	255.2511	81.4703	780.6336	-0.0592	0.0182	-0.0073	-0.0462	0.0165	0.9585
6.4843	-0.14337	3.5164	0.10449	-1.1991	-0.19795	3.9137	-16.9132	724.1439	-66.884	257.3544	79.9722	781.4827	-0.0592	0.0182	-0.0073	-0.0462	0.0165	0.9585
6.4956	-0.11453	3.6737	0.099496	-1.2409	-0.17674	4.062	-15.4603	731.3621	-66.526	260.2121	78.6745	783.949	-0.0592	0.0182	-0.0073	-0.0462	0.0165	0.9585
6.5069	-0.099895	3.7847	0.099782	-1.2742	-0.16931	4.1842	-13.7324	739.5777	-66.2879	263.5447	77.3993	787.1701	-0.0592	0.0182	-0.0073	-0.0462	0.0165	0.9585
6.5181	-0.10715	3.8574	0.10505	-1.3024	-0.17447	4.272	-11.629	748.0133	-66.0877	267.0615	76.0106	790.2908	-0.0592	0.0182	-0.0073	-0.0462	0.0165	0.9585
6.5294	-0.13422	3.888	0.11841	-1.3218	-0.19931	4.3131	-9.1135	756.0025	-65.8624	270.502	74.4143	792.6185	-0.0592	0.0182	-0.0073	-0.0462	0.0165	0.9585
6.5407	-0.20007	3.8524	0.1467	-1.3208	-0.25778	4.2759	-6.1943	762.9754	-65.5403	273.6416	72.5347	793.5979	-0.0592	0.0182	-0.0073	-0.0462	0.0165	0.9585
6.552	-0.30204	3.6914	0.181	-1.2761	-0.34326	4.0799	-2.9397	768.5788	-65.1329	276.3201	70.4008	792.9523	-0.0592	0.0182	-0.0073	-0.0462	0.0165	0.9585
6.5633	-0.45873	3.3417	0.24147	-1.1575	-0.47853	3.6524	0.55844	772.6228	-64.6032	278.435	68.0138	790.581	-0.0592	0.0182	-0.0073	-0.0462	0.0165	0.9585
6.5746	-0.65781	2.6958	0.31268	-0.92494	-0.64536	2.857	4.1726	775.0678	-64.0115	279.932	65.485	786.5698	-0.0592	0.0182	-0.0073	-0.0462	0.0165	0.9585
6.5859	-0.89785	1.6479	0.40715	-0.5375	-0.8499	1.5886	7.8232	775.9489	-63.3867	280.7891	62.8908	781.061	-0.0592	0.0182	-0.0073	-0.0462	0.0165	0.9585
6.5971	-1.1182	0.10524	0.49903	0.035355	-1.0452	-0.27193	11.4347	775.2734	-62.8168	280.9831	60.3535	774.1702	-0.0592	0.0182	-0.0073	-0.0462	0.0165	0.9585
6.6084	-1.2823	-1.9637	0.58471	0.80459	-1.2058	-2.7441	15.0262	773.0899	-62.3601	280.5104	57.9335	766.033	-0.0592	0.0182	-0.0073	-0.0462	0.0165	0.9585
6.6197	-1.2595	-4.4799	0.62563	1.7381	-1.2428	-5.7418	18.5856	769.4614	-62.0768	279.38	55.6942	756.7826	-0.0592	0.0182	-0.0073	-0.0462	0.0165	0.9585
6.631	-0.93377	-7.1621	0.57244	2.7295	-1.0481	-8.9239	22.0979	764.4783	-62.021	277.6177	53.6901	746.5567	-0.0592	0.0182	-0.0073	-0.0462	0.0165	0.9585
6.6423	-0.1035	-9.4595	0.35988	3.5704	-0.46679	-11.6614	25.5181	758.262	-62.2151	275.2677	51.9532	735.5229	-0.0592	0.0182	-0.0073	-0.0462	0.0165	0.9585
